<svg id="Layer_1" data-name="Layer 1" xmlns="http://www.w3.org/2000/svg" viewBox="0 0 100 100"><defs><style>.cls-1{fill:#232d42;}</style></defs><path class="cls-1" d="M73.51,44.86H51.61L66.2,59.45a1.47,1.47,0,0,0,2,.06,22,22,0,0,0,6.75-13,1.48,1.48,0,0,0-1.48-1.65Zm-1.46-6a22.2,22.2,0,0,0-20.6-20.6,1.49,1.49,0,0,0-1.55,1.5V40.43H70.56a1.48,1.48,0,0,0,1.49-1.55Zm-26.58,6V23a1.47,1.47,0,0,0-1.64-1.48,22.13,22.13,0,0,0-19,22.68A22.43,22.43,0,0,0,47.23,65.54a22,22,0,0,0,12.48-4.07,1.46,1.46,0,0,0,.15-2.22Z"/><path class="cls-1" d="M90.91,5.55H9.09A9.12,9.12,0,0,0,0,14.64V69.18a9.12,9.12,0,0,0,9.09,9.09H40.91v9.09H31.82v9.09H68.18V87.36H59.09V78.27H90.91A9.12,9.12,0,0,0,100,69.18V14.64A9.12,9.12,0,0,0,90.91,5.55Zm0,63.63H9.09V14.64H90.91Z"/></svg>