<svg id="Layer_1" data-name="Layer 1" xmlns="http://www.w3.org/2000/svg" viewBox="0 0 100 100"><defs><style>.cls-1{fill:#232d42;}</style></defs><path class="cls-1" d="M79.6,80a10,10,0,1,0,10,10A10,10,0,0,0,79.6,80Zm-50,0a10,10,0,1,0,10,10A10,10,0,0,0,29.6,80Zm5.9-25H72.35a10,10,0,0,0,8.75-5.15l19.3-35L91.7,10,72.35,45H37.65L16.35,0H0V10H10L28,48l-6.75,12.2A10,10,0,0,0,30,75H90V65H30ZM39,8.49c.73-.87,2.28-1.3,4.67-1.3A3.33,3.33,0,0,1,46,8.08,4.72,4.72,0,0,1,47.25,11H43v7h4v9.6a12.43,12.43,0,0,0,1.19,4.2,10.84,10.84,0,0,0,5.54,5.29,9.54,9.54,0,0,0,3.72.74,21.9,21.9,0,0,0,3-.21,14.83,14.83,0,0,0,2.93-.75,12.34,12.34,0,0,0,2.74-1.47A11.35,11.35,0,0,0,68.58,33a8.93,8.93,0,0,0,2.22-5.36,9,9,0,0,0-.52-3.06A7.88,7.88,0,0,0,68.78,22a7.44,7.44,0,0,0-2.4-1.83,7.29,7.29,0,0,0-3.28-.7,12.56,12.56,0,0,0-2.35.26,9,9,0,0,0-2.51.92,6,6,0,0,0-2,1.76,4.61,4.61,0,0,0-.8,2.75,2,2,0,0,0,.42,1.26l5.18,1.25-.1-.48a1.26,1.26,0,0,1,.41-1,1.47,1.47,0,0,1,1-.36c1,0,1.45.59,1.45,1.78a3.57,3.57,0,0,1-.21,1.11,2.9,2.9,0,0,1-.85,1.21,5.37,5.37,0,0,1-1.84,1,9.92,9.92,0,0,1-3.11.41,3.51,3.51,0,0,1-2.47-1A5,5,0,0,1,54,27.12V18H65V11H54v-.1a13.14,13.14,0,0,0-1.14-4.19A11,11,0,0,0,50.6,3.5a10.27,10.27,0,0,0-3.08-2.08A8.77,8.77,0,0,0,44,.67a18.12,18.12,0,0,0-5.07.73,10,10,0,0,0-4.47,2.7L39,8.54Z"/></svg>