<svg id="Layer_1" data-name="Layer 1" xmlns="http://www.w3.org/2000/svg" viewBox="0 0 100 100"><defs><style>.cls-1{fill:#232d42;}</style></defs><path class="cls-1" d="M87.16,54.9a39,39,0,0,0,.35-4.9,39,39,0,0,0-.35-4.9l10.55-8.25a2.52,2.52,0,0,0,.6-3.2l-10-17.3a2.5,2.5,0,0,0-2.2-1.25,2.34,2.34,0,0,0-.85.15l-12.45,5a36.53,36.53,0,0,0-8.45-4.9L62.46,2.1A2.44,2.44,0,0,0,60,0H40a2.44,2.44,0,0,0-2.45,2.1l-1.9,13.25a38.41,38.41,0,0,0-8.45,4.9l-12.45-5a2.83,2.83,0,0,0-.9-.15,2.48,2.48,0,0,0-2.15,1.25l-10,17.3a2.47,2.47,0,0,0,.6,3.2L12.86,45.1a39.65,39.65,0,0,0-.35,4.9,39.65,39.65,0,0,0,.35,4.9L2.31,63.15a2.52,2.52,0,0,0-.6,3.2l10,17.3a2.5,2.5,0,0,0,2.2,1.25,2.34,2.34,0,0,0,.85-.15l12.45-5a36.53,36.53,0,0,0,8.45,4.9l1.9,13.25A2.44,2.44,0,0,0,40,100H60a2.44,2.44,0,0,0,2.45-2.1l1.9-13.25a38.41,38.41,0,0,0,8.45-4.9l12.45,5a2.83,2.83,0,0,0,.9.15,2.48,2.48,0,0,0,2.15-1.25l10-17.3a2.52,2.52,0,0,0-.6-3.2Zm-9.9-8.55A26.71,26.71,0,0,1,77.51,50c0,1-.1,2.15-.25,3.65l-.7,5.65L81,62.8l5.4,4.2-3.5,6L76.56,70.5l-5.2-2.1-4.5,3.4a29.28,29.28,0,0,1-6.25,3.65l-5.3,2.15-.8,5.65-1,6.75h-7l-.95-6.75-.8-5.65-5.3-2.15a28.37,28.37,0,0,1-6.15-3.55l-4.55-3.5-5.3,2.15L17.11,73.1l-3.5-6,5.4-4.2,4.45-3.5-.7-5.65c-.15-1.55-.25-2.7-.25-3.7s.1-2.15.25-3.65l.7-5.65L19,37.2,13.61,33,17.11,27l6.35,2.55,5.2,2.1,4.5-3.4a29.28,29.28,0,0,1,6.25-3.65l5.3-2.15.8-5.65,1-6.75h7l.95,6.75.8,5.65,5.3,2.15a28.37,28.37,0,0,1,6.15,3.55l4.55,3.5,5.3-2.15,6.35-2.55L86.36,33,81,37.2l-4.45,3.5ZM50,30A20,20,0,1,0,70,50,20,20,0,0,0,50,30Zm0,30A10,10,0,1,1,60,50,10,10,0,0,1,50,60Z"/></svg>