<svg id="Layer_1" data-name="Layer 1" xmlns="http://www.w3.org/2000/svg" viewBox="0 0 100 100"><defs><style>.cls-1{fill:#232d42;}</style></defs><path class="cls-1" d="M52,42.41a1.5,1.5,0,0,0-1.37-.92H29.7A1.48,1.48,0,0,0,28.22,43v0a1.48,1.48,0,0,0,1.48,1.48H50.62A1.48,1.48,0,0,0,52,42.44ZM28.22,35a1.48,1.48,0,0,0,1.48,1.48H48.64a1.48,1.48,0,0,0,1.48-1.6v0a1.48,1.48,0,0,0-1.48-1.37H29.7A1.48,1.48,0,0,0,28.22,35Zm1.48-6.53H49.35a1.47,1.47,0,0,0,1.43-1.09v0a1.49,1.49,0,0,0-1.43-1.88H29.7A1.48,1.48,0,0,0,28.22,27v0A1.48,1.48,0,0,0,29.7,28.48ZM28.22,59a1.51,1.51,0,0,0,1.5,1.5H71.21a1.5,1.5,0,0,0,0-3H29.72A1.5,1.5,0,0,0,28.22,59Zm29-9.1a1.46,1.46,0,0,0-1-.41H29.7A1.48,1.48,0,0,0,28.22,51v0A1.48,1.48,0,0,0,29.7,52.5H56.25a1.48,1.48,0,0,0,1-2.55Zm20.62,43.3H42.78V73.73H23.3V8.79H77.85v1.74a22.93,22.93,0,0,1,7.79,3.19V8.79A7.79,7.79,0,0,0,77.88,1H23.3a7.82,7.82,0,0,0-7.8,7.79V77.62L38.88,101h39a7.78,7.78,0,0,0,7.75-7.79l0-36.83V52.63a23.07,23.07,0,0,1-7.78,3.18ZM73.16,26a7.17,7.17,0,1,0,7.17,7.17A7.17,7.17,0,0,0,73.16,26Zm0,10.75a3.58,3.58,0,1,1,3.59-3.58A3.59,3.59,0,0,1,73.16,36.75Zm13.31-1.83a12.42,12.42,0,0,0,.13-1.75,12.68,12.68,0,0,0-.13-1.76l3.78-2.95a.92.92,0,0,0,.22-1.15l-3.58-6.2a.91.91,0,0,0-.79-.45.78.78,0,0,0-.31.06l-4.46,1.79a13,13,0,0,0-3-1.76L77.63,16a.89.89,0,0,0-.88-.76H69.58a.89.89,0,0,0-.88.76L68,20.75a13.79,13.79,0,0,0-3,1.76l-4.46-1.79a1,1,0,0,0-.33-.06.91.91,0,0,0-.77.45l-3.58,6.2a.89.89,0,0,0,.21,1.15l3.78,2.95a14.72,14.72,0,0,0-.12,1.76,14.42,14.42,0,0,0,.12,1.75l-3.78,3A.9.9,0,0,0,55.86,39l3.58,6.19a.89.89,0,0,0,.79.45,1,1,0,0,0,.31-.05L65,43.83a13.36,13.36,0,0,0,3,1.75l.68,4.75a.88.88,0,0,0,.88.75h7.17a.88.88,0,0,0,.88-.75l.68-4.75a13.75,13.75,0,0,0,3-1.75l4.46,1.79a1.26,1.26,0,0,0,.33.05.89.89,0,0,0,.77-.45L90.47,39a.92.92,0,0,0-.22-1.15ZM85,41.43l-2.27-.92-1.87-.75L79.2,41A10.74,10.74,0,0,1,77,42.29l-1.9.77-.28,2-.36,2.42H71.91l-.34-2.42-.29-2-1.9-.77A10.48,10.48,0,0,1,67.18,41l-1.63-1.25-1.9.77-2.27.91-1.26-2.16,1.94-1.51,1.59-1.25-.25-2c0-.55-.09-1-.09-1.32s0-.77.09-1.31l.25-2-1.59-1.26-1.94-1.5,1.26-2.17,2.27.91,1.87.76,1.61-1.22a9.93,9.93,0,0,1,2.24-1.31l1.9-.77.28-2,.36-2.42H74.4l.34,2.42.29,2,1.9.77a10,10,0,0,1,2.2,1.27l1.63,1.26,1.9-.77,2.27-.92,1.26,2.17-1.92,1.52-1.59,1.26.25,2A9.9,9.9,0,0,1,83,33.17c0,.37,0,.77-.09,1.31l-.25,2,1.59,1.25,1.94,1.51Z"/></svg>