<svg id="Layer_1" data-name="Layer 1" xmlns="http://www.w3.org/2000/svg" viewBox="0 0 100 100"><defs><style>.cls-1{fill:#232d42;}</style></defs><path class="cls-1" d="M62.69,0h-39A7.79,7.79,0,0,0,16,7.79l0,36.83,0,47.59A7.79,7.79,0,0,0,23.69,100H78.27a7.82,7.82,0,0,0,7.8-7.79V23.38ZM78.27,92.21H23.73V7.79H58.79V27.27H78.27ZM28.86,50a1.5,1.5,0,0,0,1.5,1.5H61.17a1.5,1.5,0,0,0,0-3H30.36A1.5,1.5,0,0,0,28.86,50Zm0,8a1.5,1.5,0,0,0,1.5,1.5H71.85a1.5,1.5,0,0,0,0-3H30.36A1.5,1.5,0,0,0,28.86,58Zm43,6.5H30.36a1.5,1.5,0,0,0,0,3H71.85a1.5,1.5,0,0,0,0-3Zm0,8H30.36a1.5,1.5,0,0,0,0,3H71.85a1.5,1.5,0,0,0,0-3Z"/></svg>