<svg id="Layer_1" data-name="Layer 1" xmlns="http://www.w3.org/2000/svg" viewBox="0 0 100 100"><defs><style>.cls-1{fill:#232d42;}</style></defs><path class="cls-1" d="M86.85,19.14,70.47,2.75A9.41,9.41,0,0,0,63.85,0H24a9.41,9.41,0,0,0-9.37,9.39V90.63A9.38,9.38,0,0,0,24,100H80.23a9.37,9.37,0,0,0,9.37-9.37V25.78A9.39,9.39,0,0,0,86.85,19.14ZM79.47,25H64.61V10.15ZM24,90.63V9.39H55.24V29.7a4.68,4.68,0,0,0,4.68,4.69H80.23V90.63Z"/><path class="cls-1" d="M51.57,41.37A20.47,20.47,0,1,0,72,61.84,20.47,20.47,0,0,0,51.57,41.37ZM62.33,59.66,57.92,64,59,70A1.33,1.33,0,0,1,57,71.43l-5.46-2.86-5.45,2.86A1.33,1.33,0,0,1,44.18,70l1-6.07-4.41-4.3a1.34,1.34,0,0,1,.74-2.28l6.1-.89L50.37,51a1.34,1.34,0,0,1,2.4,0l2.73,5.53,6.09.89A1.34,1.34,0,0,1,62.33,59.66Z"/></svg>