<svg id="Layer_1" data-name="Layer 1" xmlns="http://www.w3.org/2000/svg" viewBox="0 0 100 100"><defs><style>.cls-1{fill:#232d42;}</style></defs><path class="cls-1" d="M81.13,30.48l-7.44-7.43a8.74,8.74,0,0,0-6.18-2.55H32.07a8.81,8.81,0,0,0-6.19,2.55l-7.44,7.43H0v40H10a5,5,0,0,0,5-5h1.42L29.63,77.42a13.74,13.74,0,0,0,16.5.59,9.59,9.59,0,0,0,14-1.26,8.76,8.76,0,0,0,10-2.63l4.09-5A8.67,8.67,0,0,0,76,65.48h9a5,5,0,0,0,5,5h10v-40Zm-73.62,35a2.5,2.5,0,1,1,2.5-2.5A2.51,2.51,0,0,1,7.51,65.44Zm60.93-1.08-4.07,5a1.27,1.27,0,0,1-1.77.19l-3.73-3-4.69,5.7a2.08,2.08,0,0,1-2.81.37L45.62,67.7l-2.44,3a6.22,6.22,0,0,1-8.64,1L19.33,58H15V38h6.54l9.64-9.63.89-.36h8.86l-6,5.55a11.18,11.18,0,0,0-.69,15.83c2.31,2.53,9.56,6.44,15.86.69l1.28-1.18L68.26,62.59a1.28,1.28,0,0,1,.18,1.77ZM85,58H74.19a9.07,9.07,0,0,0-1.2-1.2l-16-13,2-1.78a2.5,2.5,0,0,0,.15-3.53l-1.7-1.83a2.51,2.51,0,0,0-3.53-.16l-8.63,7.91a4,4,0,0,1-5.4,0,3.7,3.7,0,0,1,.19-5.3l10.25-9.39A6.2,6.2,0,0,1,54.44,28l13.08,0a1.15,1.15,0,0,1,.86.36L78,38h7Zm7.5,7.46a2.5,2.5,0,1,1,2.5-2.5A2.51,2.51,0,0,1,92.51,65.44Z"/></svg>