<svg id="Layer_1" data-name="Layer 1" xmlns="http://www.w3.org/2000/svg" viewBox="0 0 100 100"><defs><style>.cls-1{fill:#232d42;}</style></defs><path class="cls-1" d="M9.32,77.82v-49H80.67V43.56a25.5,25.5,0,0,1,8.93,2.81V28.77a8.9,8.9,0,0,0-8.93-8.93H62.83V10.93A8.92,8.92,0,0,0,53.91,2H36.07a8.88,8.88,0,0,0-8.91,8.93v8.91H9.32A8.87,8.87,0,0,0,.43,28.77l0,49.05a8.89,8.89,0,0,0,8.93,8.92H51.9a25.51,25.51,0,0,1-3.52-8.92ZM36.07,10.93H53.91v8.91H36.07ZM76.9,67.67a3.68,3.68,0,0,0-4.67,4.67,3.63,3.63,0,0,0,2.26,2.26,3.68,3.68,0,0,0,4.67-4.67A3.54,3.54,0,0,0,76.9,67.67Zm23,1.49a24.31,24.31,0,1,0-26.2,26.2A24.4,24.4,0,0,0,99.92,69.16Zm-12.46,2a10.94,10.94,0,0,1-.11,1.54l3.31,2.59a.78.78,0,0,1,.19,1l-3.14,5.43a.76.76,0,0,1-.67.39.9.9,0,0,1-.28,0l-3.91-1.57A12,12,0,0,1,80.2,82l-.6,4.16a.75.75,0,0,1-.77.66H72.56a.77.77,0,0,1-.77-.66L71.19,82a11.86,11.86,0,0,1-2.65-1.53L64.64,82a.8.8,0,0,1-.27,0,.78.78,0,0,1-.69-.39l-3.14-5.43a.78.78,0,0,1,.19-1L64,72.67a13,13,0,0,1-.11-1.54A12.81,12.81,0,0,1,64,69.6L60.73,67a.78.78,0,0,1-.19-1l3.14-5.43a.78.78,0,0,1,.67-.39,1,1,0,0,1,.29,0l3.9,1.57a12.3,12.3,0,0,1,2.65-1.54l.6-4.16a.78.78,0,0,1,.77-.66h6.27a.76.76,0,0,1,.77.66l.6,4.16a11.32,11.32,0,0,1,2.65,1.54l3.91-1.57a.75.75,0,0,1,.26,0,.77.77,0,0,1,.69.39L90.85,66a.8.8,0,0,1-.19,1L87.35,69.6A10.91,10.91,0,0,1,87.46,71.13Z"/></svg>